{"asset":{"version":"2.0","generator":"Blockbench 4.9.2 glTF exporter"},"scenes":[{"nodes":[5],"name":"blockbench_export"}],"scene":0,"nodes":[{"name":"gameboy","mesh":0},{"rotation":[0,0,0.7071067811865475,0.7071067811865476],"name":"bouton a","mesh":1},{"rotation":[0,0,0.7071067811865475,0.7071067811865476],"name":"bouton b","mesh":2},{"rotation":[0,0,0.7071067811865475,0.7071067811865476],"translation":[0,0.03125,0],"name":"cuboid","mesh":3},{"translation":[0.5,1.1875,-0.5],"name":"croiedirectionnel","children":[3]},{"children":[0,1,2,4]}],"bufferViews":[{"buffer":0,"byteOffset":0,"byteLength":768,"target":34962,"byteStride":12},{"buffer":0,"byteOffset":768,"byteLength":768,"target":34962,"byteStride":12},{"buffer":0,"byteOffset":1536,"byteLength":512,"target":34962,"byteStride":8},{"buffer":0,"byteOffset":2048,"byteLength":192,"target":34963},{"buffer":0,"byteOffset":2240,"byteLength":960,"target":34962,"byteStride":12},{"buffer":0,"byteOffset":3200,"byteLength":960,"target":34962,"byteStride":12},{"buffer":0,"byteOffset":4160,"byteLength":640,"target":34962,"byteStride":8},{"buffer":0,"byteOffset":4800,"byteLength":192,"target":34963},{"buffer":0,"byteOffset":4992,"byteLength":960,"target":34962,"byteStride":12},{"buffer":0,"byteOffset":5952,"byteLength":960,"target":34962,"byteStride":12},{"buffer":0,"byteOffset":6912,"byteLength":640,"target":34962,"byteStride":8},{"buffer":0,"byteOffset":7552,"byteLength":192,"target":34963},{"buffer":0,"byteOffset":7744,"byteLength":1440,"target":34962,"byteStride":12},{"buffer":0,"byteOffset":9184,"byteLength":1440,"target":34962,"byteStride":12},{"buffer":0,"byteOffset":10624,"byteLength":960,"target":34962,"byteStride":8},{"buffer":0,"byteOffset":11584,"byteLength":360,"target":34963}],"buffers":[{"byteLength":11944,"uri":"data:application/octet-stream;base64,"}],"accessors":[{"bufferView":0,"componentType":5126,"count":64,"max":[0.1875,3.625,0.9375],"min":[-0.1875,0.625,-0.9375],"type":"VEC3"},{"bufferView":1,"componentType":5126,"count":64,"max":[1,1,1],"min":[-1,-1,-1],"type":"VEC3"},{"bufferView":2,"componentType":5126,"count":64,"max":[0.4765625,0.7578125],"min":[0,0],"type":"VEC2"},{"bufferView":3,"componentType":5123,"count":96,"max":[63],"min":[0],"type":"SCALAR"},{"bufferView":4,"componentType":5126,"count":80,"max":[1.875,0.25,0.8125],"min":[1.625,0.1875,0.5625],"type":"VEC3"},{"bufferView":5,"componentType":5126,"count":80,"max":[1,1,1],"min":[-1,-1,-1],"type":"VEC3"},{"bufferView":6,"componentType":5126,"count":80,"max":[0.484375,0.484375],"min":[0.21875,0.3828125],"type":"VEC2"},{"bufferView":7,"componentType":5123,"count":96,"max":[79],"min":[0],"type":"SCALAR"},{"bufferView":8,"componentType":5126,"count":80,"max":[1.6875,0.25,0.4375],"min":[1.4375,0.1875,0.1875],"type":"VEC3"},{"bufferView":9,"componentType":5126,"count":80,"max":[1,1,1],"min":[-1,-1,-1],"type":"VEC3"},{"bufferView":10,"componentType":5126,"count":80,"max":[0.5,0.484375],"min":[0.296875,0],"type":"VEC2"},{"bufferView":11,"componentType":5123,"count":96,"max":[79],"min":[0],"type":"SCALAR"},{"bufferView":12,"componentType":5126,"count":120,"max":[0.71875,0.75,0.28125],"min":[0.15625,0.6875,-0.28125],"type":"VEC3"},{"bufferView":13,"componentType":5126,"count":120,"max":[1,1,1],"min":[-1,-1,-1],"type":"VEC3"},{"bufferView":14,"componentType":5126,"count":120,"max":[0.4921875,0.4765625],"min":[0.21875,0.375],"type":"VEC2"},{"bufferView":15,"componentType":5123,"count":180,"max":[119],"min":[0],"type":"SCALAR"}],"materials":[{"pbrMetallicRoughness":{"metallicFactor":0,"roughnessFactor":1,"baseColorTexture":{"index":0}},"alphaMode":"MASK","alphaCutoff":0.05,"doubleSided":true}],"textures":[{"sampler":0,"source":0}],"samplers":[{"magFilter":9728,"minFilter":9728,"wrapS":33071,"wrapT":33071}],"images":[{"mimeType":"image/png","uri":"data:image/png;base64,"}],"meshes":[{"primitives":[{"mode":4,"attributes":{"POSITION":0,"NORMAL":1,"TEXCOORD_0":2},"indices":3,"material":0}]},{"primitives":[{"mode":4,"attributes":{"POSITION":4,"NORMAL":5,"TEXCOORD_0":6},"indices":7,"material":0}]},{"primitives":[{"mode":4,"attributes":{"POSITION":8,"NORMAL":9,"TEXCOORD_0":10},"indices":11,"material":0}]},{"primitives":[{"mode":4,"attributes":{"POSITION":12,"NORMAL":13,"TEXCOORD_0":14},"indices":15,"material":0}]}]}