<?xml version="1.0" encoding="utf-8"?>
<!-- Generator: Adobe Illustrator 27.9.5, SVG Export Plug-In . SVG Version: 9.03 Build 54986)  -->
<svg version="1.1" id="Layer_1" xmlns="http://www.w3.org/2000/svg" xmlns:xlink="http://www.w3.org/1999/xlink" x="0px" y="0px"
	 viewBox="0 0 16 16" style="enable-background:new 0 0 16 16;" xml:space="preserve">
<style type="text/css">
	.st0{fill:#FFFFFF;}
</style>
<g>
	<path class="st0" d="M2.1,14.4h1.1c-0.1-0.1-0.3-0.2-0.4-0.3C2.8,14,2.7,14,2.7,13.9c-0.1-0.1-0.1-0.2-0.1-0.3
		c0-0.1-0.1-0.3-0.1-0.5c0-0.1,0-0.2,0-0.3L4.4,1.6H2.1c-0.3,0-0.5,0.2-0.5,0.5v11.8C1.6,14.2,1.8,14.4,2.1,14.4L2.1,14.4z"/>
	<path class="st0" d="M3.5,13.2c0,0,0,0.1,0,0.1c0,0,0,0.1,0,0.1c0,0,0,0,0,0.1c0.1,0.1,0.2,0.2,0.3,0.2l4.5,0.7l3.4,0.6
		c0,0,0.1,0,0.1,0c0.2,0,0.5-0.2,0.5-0.4l1.9-11.7c0-0.3-0.1-0.5-0.4-0.6l-3.7-0.6L9.6,1.6L6.1,1C6,1,5.8,1,5.7,1.1
		C5.6,1.2,5.5,1.3,5.5,1.4l0,0.2l-0.2,1L3.5,13.2C3.5,13.1,3.5,13.2,3.5,13.2L3.5,13.2z"/>
</g>
</svg>
