<?xml version="1.0" encoding="utf-8"?>
<!-- Generator: Adobe Illustrator 27.9.5, SVG Export Plug-In . SVG Version: 9.03 Build 54986)  -->
<svg version="1.1" id="Layer_1" xmlns="http://www.w3.org/2000/svg" xmlns:xlink="http://www.w3.org/1999/xlink" x="0px" y="0px"
	 viewBox="0 0 16 16" style="enable-background:new 0 0 16 16;" xml:space="preserve">
<style type="text/css">
	.st0{fill:#FFFFFF;}
</style>
<g>
	<path class="st0" d="M13.9,1.4H7.4C7,1.4,6.7,1.7,6.7,2.1S7,2.8,7.4,2.8h6.5c0.4,0,0.7-0.3,0.7-0.7S14.2,1.4,13.9,1.4z"/>
	<path class="st0" d="M7.4,4.9h4.3c0.4,0,0.7-0.3,0.7-0.7s-0.3-0.7-0.7-0.7H7.4C7,3.6,6.7,3.9,6.7,4.2S7,4.9,7.4,4.9z"/>
	<path class="st0" d="M13.9,6.2H7.4C7,6.2,6.7,6.6,6.7,6.9S7,7.6,7.4,7.6h6.5c0.4,0,0.7-0.3,0.7-0.7S14.2,6.2,13.9,6.2z"/>
	<path class="st0" d="M7.4,9.8h4.3c0.4,0,0.7-0.3,0.7-0.7s-0.3-0.7-0.7-0.7H7.4C7,8.4,6.7,8.7,6.7,9.1S7,9.8,7.4,9.8z"/>
	<path class="st0" d="M2.5,1h2.2c0.6,0,1.1,0.5,1.1,1.1v2.2c0,0.6-0.5,1.1-1.1,1.1H2.5C2,5.3,1.5,4.8,1.5,4.2V2.1C1.5,1.5,2,1,2.5,1
		z"/>
	<path class="st0" d="M2.5,5.8h2.2c0.6,0,1.1,0.5,1.1,1.1v2.2c0,0.6-0.5,1.1-1.1,1.1H2.5c-0.6,0-1.1-0.5-1.1-1.1V6.9
		C1.5,6.3,2,5.8,2.5,5.8z"/>
	<path class="st0" d="M2.5,10.7h2.2c0.6,0,1.1,0.5,1.1,1.1v2.2c0,0.6-0.5,1.1-1.1,1.1H2.5c-0.6,0-1.1-0.5-1.1-1.1v-2.2
		C1.5,11.2,2,10.7,2.5,10.7z"/>
	<path class="st0" d="M13.9,11.1H7.4c-0.4,0-0.7,0.3-0.7,0.7s0.3,0.7,0.7,0.7h6.5c0.4,0,0.7-0.3,0.7-0.7S14.2,11.1,13.9,11.1z"/>
	<path class="st0" d="M11.7,14.6c0.4,0,0.7-0.3,0.7-0.7s-0.3-0.7-0.7-0.7H7.4c-0.4,0-0.7,0.3-0.7,0.7s0.3,0.7,0.7,0.7H11.7z"/>
</g>
</svg>
