<?xml version="1.0" encoding="utf-8"?>
<!-- Generator: Adobe Illustrator 27.9.5, SVG Export Plug-In . SVG Version: 9.03 Build 54986)  -->
<svg version="1.1" id="Layer_1" xmlns="http://www.w3.org/2000/svg" xmlns:xlink="http://www.w3.org/1999/xlink" x="0px" y="0px"
	 viewBox="0 0 16 16" style="enable-background:new 0 0 16 16;" xml:space="preserve">
<style type="text/css">
	.st0{fill:#FFFFFF;}
</style>
<path class="st0" d="M7.2,6.4L6,6.4c-0.2,0-0.3,0.2-0.3,0.3v4.1c0,0.2,0.2,0.3,0.3,0.3l1.2,0v0v0c0.1,0,0.2,0,0.2-0.1
	c0.1-0.1,0.1-0.2,0.1-0.2V6.7c0-0.1,0-0.2-0.1-0.2C7.4,6.4,7.3,6.4,7.2,6.4L7.2,6.4z M12.8,7.8h-1.2c-0.2,0-0.3,0.2-0.3,0.3v2.6
	c0,0.2,0.2,0.3,0.3,0.3l1.2,0v0c0.1,0,0.2,0,0.2-0.1c0.1-0.1,0.1-0.2,0.1-0.2V8.2c0-0.1,0-0.2-0.1-0.2C13,7.9,12.9,7.8,12.8,7.8
	L12.8,7.8z M4.4,3.7l-1.2,0C3,3.7,2.9,3.9,2.9,4.1v6.7c0,0.2,0.2,0.3,0.3,0.3l1.2,0v0c0.1,0,0.2,0,0.2-0.1c0.1-0.1,0.1-0.2,0.1-0.2
	V4.1c0-0.1,0-0.2-0.1-0.2C4.6,3.7,4.5,3.7,4.4,3.7L4.4,3.7z M10,4.5H8.8c-0.2,0-0.3,0.2-0.3,0.3v5.9c0,0.2,0.2,0.3,0.3,0.3l1.2,0v0
	c0.1,0,0.2,0,0.2-0.1c0.1-0.1,0.1-0.2,0.1-0.2V4.9c0-0.1,0-0.2-0.1-0.2C10.2,4.6,10.1,4.5,10,4.5L10,4.5z M2.5,11.6
	c-0.2,0-0.3,0.2-0.3,0.3s0.2,0.3,0.3,0.3l11.1,0c0.2,0,0.3-0.2,0.3-0.3c0-0.2-0.2-0.3-0.3-0.3l0,0v0L2.5,11.6z"/>
</svg>
