<?xml version="1.0" encoding="utf-8"?>
<!-- Generator: Adobe Illustrator 27.9.5, SVG Export Plug-In . SVG Version: 9.03 Build 54986)  -->
<svg version="1.1" id="Layer_1" xmlns="http://www.w3.org/2000/svg" xmlns:xlink="http://www.w3.org/1999/xlink" x="0px" y="0px"
	 viewBox="0 0 16 16" style="enable-background:new 0 0 16 16;" xml:space="preserve">
<style type="text/css">
	.st0{fill:#FFFFFF;}
</style>
<g>
	<path class="st0" d="M10.6,10.6c-1.4,1.4-2.9,2.6-4.3,3.5c2.1,0.6,4.5,0,6.1-1.6s2.2-4,1.6-6.1C13.2,7.7,12,9.2,10.6,10.6
		L10.6,10.6z"/>
	<path class="st0" d="M14.6,1.4c-0.7-0.7-2.4-0.4-4.3,0.8C8,1.3,5.4,1.7,3.6,3.6C1.7,5.4,1.3,8,2.1,10.3c-1.1,2-1.5,3.6-0.8,4.3
		c1.2,1.2,5.2-0.7,8.9-4.4S15.9,2.6,14.6,1.4L14.6,1.4z M4.4,4.4C6,2.9,8.3,2.5,10.3,3.5c0.1,0.1,0.2,0.2,0.1,0.3
		C10.3,4,10.2,4,10.1,4C8.3,3.1,6.2,3.4,4.8,4.8c-0.1,0-0.1,0.1-0.2,0.1s-0.1,0-0.2-0.1C4.4,4.7,4.4,4.5,4.4,4.4L4.4,4.4z M2.5,13.5
		c-0.3-0.3-0.1-1,0.4-1.9c0.2,0.3,0.4,0.6,0.7,0.8c0.1,0.1,0.3,0.2,0.4,0.4c1.2-0.6,3-2,5-3.9C11,6.8,12.2,5,12.8,3.9
		c-0.1-0.1-0.2-0.3-0.4-0.4c-0.3-0.3-0.5-0.5-0.8-0.7c0.9-0.5,1.6-0.7,1.9-0.4c0.7,0.7-1.2,3.7-4.3,6.8C6.2,12.3,3.2,14.2,2.5,13.5
		L2.5,13.5z"/>
</g>
</svg>
